<svg width="24" height="24" viewBox="0 0 24 24" fill="none" xmlns="http://www.w3.org/2000/svg">
<circle cx="12" cy="12" r="11.5" fill="white" stroke="#C0C0C0"/>
<path d="M7.33341 17.25H16.6667C17.3111 17.25 17.8334 16.7277 17.8334 16.0833V10.0167C17.8334 9.37233 17.3111 8.85 16.6667 8.85H14.9167L13.4584 6.75H10.5417L9.08341 8.85H7.33341C6.68908 8.85 6.16675 9.37233 6.16675 10.0167V16.0833C6.16675 16.7277 6.68908 17.25 7.33341 17.25Z" stroke="#C0C0C0" stroke-width="1.5" stroke-linecap="round" stroke-linejoin="round"/>
<path d="M12.0001 14.9167C13.2887 14.9167 14.3334 13.872 14.3334 12.5833C14.3334 11.2947 13.2887 10.25 12.0001 10.25C10.7114 10.25 9.66675 11.2947 9.66675 12.5833C9.66675 13.872 10.7114 14.9167 12.0001 14.9167Z" stroke="#C0C0C0" stroke-width="1.5" stroke-linecap="round" stroke-linejoin="round"/>
</svg>
