<svg width="27" height="38" viewBox="0 0 27 38" fill="none" xmlns="http://www.w3.org/2000/svg">
<path d="M3.03 35.14C4.57 35.14 5.52 34.22 5.52 33.06C5.52 31.97 4.87 31.46 4.01 31.09L2.97 30.64C2.4 30.4 1.76 30.14 1.76 29.42C1.76 28.77 2.3 28.35 3.13 28.35C3.8 28.35 4.34 28.62 4.79 29.04L5.28 28.45C4.77 27.91 4 27.54 3.13 27.54C1.79 27.54 0.82 28.36 0.82 29.49C0.82 30.56 1.62 31.08 2.31 31.37L3.36 31.83C4.05 32.13 4.58 32.37 4.58 33.13C4.58 33.84 4.01 34.32 3.05 34.32C2.29 34.32 1.55 33.97 1.02 33.41L0.47 34.05C1.11 34.72 2 35.14 3.03 35.14ZM6.95703 35H7.88703V31.55H11.307V35H12.227V27.67H11.307V30.74H7.88703V27.67H6.95703V35ZM16.9424 35.14C18.7824 35.14 20.0624 33.66 20.0624 31.31C20.0624 28.97 18.7824 27.54 16.9424 27.54C15.0924 27.54 13.8124 28.96 13.8124 31.31C13.8124 33.66 15.0924 35.14 16.9424 35.14ZM16.9424 34.32C15.6224 34.32 14.7624 33.14 14.7624 31.31C14.7624 29.48 15.6224 28.35 16.9424 28.35C18.2524 28.35 19.1224 29.48 19.1224 31.31C19.1224 33.14 18.2524 34.32 16.9424 34.32ZM21.6543 35H22.5843V32.09H23.7843C25.3943 32.09 26.4943 31.37 26.4943 29.83C26.4943 28.22 25.3843 27.67 23.7443 27.67H21.6543V35ZM22.5843 31.34V28.43H23.6243C24.9243 28.43 25.5743 28.76 25.5743 29.83C25.5743 30.87 24.9543 31.34 23.6743 31.34H22.5843Z" fill="#676767"/>
<path d="M11.6501 3.26993V10.6499H4.27005V3.26993H11.6501ZM12.4901 2.42993H3.43005V11.4899H12.4901V2.42993Z" fill="#676767"/>
<path d="M11.6501 13.35V20.73H4.27005V13.35H11.6501ZM12.4901 12.51H3.43005V21.57H12.4901V12.51Z" fill="#676767"/>
<path d="M21.73 3.26993V10.6499H14.35V3.26993H21.73ZM22.57 2.42993H13.51V11.4899H22.57V2.42993Z" fill="#676767"/>
<path d="M18.07 13.35C20.1214 13.35 21.79 15.0186 21.79 17.07C21.79 19.1214 20.1214 20.79 18.07 20.79C16.0186 20.79 14.35 19.1214 14.35 17.07C14.35 15.0186 16.0186 13.35 18.07 13.35ZM18.07 12.51C15.5518 12.51 13.51 14.5518 13.51 17.07C13.51 19.5882 15.5518 21.63 18.07 21.63C20.5882 21.63 22.63 19.5882 22.63 17.07C22.63 14.5518 20.5882 12.51 18.07 12.51Z" fill="#676767"/>
</svg>
