<svg width="36" height="50" viewBox="0 0 36 50" fill="none" xmlns="http://www.w3.org/2000/svg">
<g clip-path="url(#clip0_553_1208)">
<path d="M17.3129 17.2965H4.7077V4.70776H17.3129V17.2965ZM5.97804 16.0279H16.0425V5.97644H5.97804V16.0279Z" fill="#676767"/>
<path d="M17.3129 31.2521H4.7077V18.6633H17.3129V31.2521ZM5.97804 29.9834H16.0425V19.932H5.97804V29.9834Z" fill="#676767"/>
<path d="M31.2923 17.2965H18.6871V4.70776H31.2923V17.2965ZM19.9575 16.0279H30.022V5.97644H19.9575V16.0279Z" fill="#676767"/>
<path d="M24.9522 31.2924C21.4703 31.2924 18.6352 28.4609 18.6352 24.9836C18.6352 21.5063 21.4703 18.6748 24.9522 18.6748C28.4341 18.6748 31.2692 21.5063 31.2692 24.9836C31.2692 28.4609 28.4341 31.2924 24.9522 31.2924ZM24.9522 19.9608C22.1806 19.9608 19.9228 22.2156 19.9228 24.9836C19.9228 27.7516 22.1806 30.0064 24.9522 30.0064C27.7239 30.0064 29.9816 27.7516 29.9816 24.9836C29.9816 22.2156 27.7239 19.9608 24.9522 19.9608Z" fill="#676767"/>
</g>
<path d="M8.03 47.14C9.57 47.14 10.52 46.22 10.52 45.06C10.52 43.97 9.87 43.46 9.01 43.09L7.97 42.64C7.4 42.4 6.76 42.14 6.76 41.42C6.76 40.77 7.3 40.35 8.13 40.35C8.8 40.35 9.34 40.62 9.79 41.04L10.28 40.45C9.77 39.91 9 39.54 8.13 39.54C6.79 39.54 5.82 40.36 5.82 41.49C5.82 42.56 6.62 43.08 7.31 43.37L8.36 43.83C9.05 44.13 9.58 44.37 9.58 45.13C9.58 45.84 9.01 46.32 8.05 46.32C7.29 46.32 6.55 45.97 6.02 45.41L5.47 46.05C6.11 46.72 7 47.14 8.03 47.14ZM11.957 47H12.887V43.55H16.307V47H17.227V39.67H16.307V42.74H12.887V39.67H11.957V47ZM21.9424 47.14C23.7824 47.14 25.0624 45.66 25.0624 43.31C25.0624 40.97 23.7824 39.54 21.9424 39.54C20.0924 39.54 18.8124 40.96 18.8124 43.31C18.8124 45.66 20.0924 47.14 21.9424 47.14ZM21.9424 46.32C20.6224 46.32 19.7624 45.14 19.7624 43.31C19.7624 41.48 20.6224 40.35 21.9424 40.35C23.2524 40.35 24.1224 41.48 24.1224 43.31C24.1224 45.14 23.2524 46.32 21.9424 46.32ZM26.6543 47H27.5843V44.09H28.7843C30.3943 44.09 31.4943 43.37 31.4943 41.83C31.4943 40.22 30.3843 39.67 28.7443 39.67H26.6543V47ZM27.5843 43.34V40.43H28.6243C29.9243 40.43 30.5743 40.76 30.5743 41.83C30.5743 42.87 29.9543 43.34 28.6743 43.34H27.5843Z" fill="#676767"/>
<defs>
<clipPath id="clip0_553_1208">
<rect width="26.5846" height="26.5846" fill="white" transform="translate(4.7077 4.70776)"/>
</clipPath>
</defs>
</svg>
