<svg width="36" height="36" viewBox="0 0 36 36" fill="none" xmlns="http://www.w3.org/2000/svg">
<g clip-path="url(#clip0_201_1393)">
<path d="M17.3127 17.2963H4.70752V4.70752H17.3127V17.2963ZM5.97785 16.0276H16.0424V5.9762H5.97785V16.0276Z" fill="#9C9C9C"/>
<path d="M17.3127 31.2519H4.70752V18.6631H17.3127V31.2519ZM5.97785 29.9832H16.0424V19.9318H5.97785V29.9832Z" fill="#9C9C9C"/>
<path d="M31.2922 17.2963H18.687V4.70752H31.2922V17.2963ZM19.9573 16.0276H30.0219V5.9762H19.9573V16.0276Z" fill="#9C9C9C"/>
<path d="M24.9518 31.2919C21.4699 31.2919 18.6348 28.4605 18.6348 24.9831C18.6348 21.5058 21.4699 18.6743 24.9518 18.6743C28.4337 18.6743 31.2688 21.5058 31.2688 24.9831C31.2688 28.4605 28.4337 31.2919 24.9518 31.2919ZM24.9518 19.9603C22.1802 19.9603 19.9224 22.2151 19.9224 24.9831C19.9224 27.7511 22.1802 30.0059 24.9518 30.0059C27.7234 30.0059 29.9812 27.7511 29.9812 24.9831C29.9812 22.2151 27.7234 19.9603 24.9518 19.9603Z" fill="#9C9C9C"/>
</g>
<defs>
<clipPath id="clip0_201_1393">
<rect width="26.5846" height="26.5846" fill="white" transform="translate(4.70752 4.70752)"/>
</clipPath>
</defs>
</svg>
