<svg width="36" height="36" viewBox="0 0 36 36" fill="none" xmlns="http://www.w3.org/2000/svg">
<g clip-path="url(#clip0_53_156)">
<path d="M16.8018 17.7837H4V5H16.8018V17.7837ZM5.29032 16.4952H15.5114V6.2885H5.29032V16.4952Z" fill="#9C9C9C"/>
<path d="M16.8018 31.9579H4V19.1736H16.8018V31.9573V31.9579ZM5.29032 30.6694H15.5114V20.4627H5.29032V30.6694Z" fill="#9C9C9C"/>
<path d="M31 17.7837H18.1982V5H31V17.7837ZM19.4886 16.4952H29.7097V6.2885H19.4886V16.4952Z" fill="#9C9C9C"/>
<path d="M24.5631 32.0001C21.0252 32.0001 18.1472 29.1262 18.1472 25.5933C18.1472 22.0605 21.0252 19.1865 24.5631 19.1865C28.1009 19.1865 30.9789 22.0605 30.9789 25.5933C30.9789 29.1262 28.1009 32.0001 24.5631 32.0001ZM24.5631 20.492C21.746 20.492 19.4545 22.7803 19.4545 25.5933C19.4545 28.4063 21.746 30.6946 24.5631 30.6946C27.3801 30.6946 29.6716 28.4063 29.6716 25.5933C29.6716 22.7803 27.3801 20.492 24.5631 20.492Z" fill="#9C9C9C"/>
</g>
<defs>
<clipPath id="clip0_53_156">
<rect width="27" height="27" fill="white" transform="translate(4 5)"/>
</clipPath>
</defs>
</svg>
