<svg width="28" height="29" viewBox="0 0 28 29" fill="none" xmlns="http://www.w3.org/2000/svg">
<path d="M27.5924 14.4139C27.5924 13.4632 27.5004 12.4819 27.347 11.5619H14.0684V16.9899H21.6737C21.367 18.7379 20.355 20.2712 18.8524 21.2525L23.391 24.7792C26.059 22.2952 27.5924 18.6765 27.5924 14.4139Z" fill="#4280EF"/>
<path d="M14.0685 28.1525C17.8711 28.1525 21.0605 26.8952 23.3911 24.7485L18.8524 21.2525C17.5951 22.1112 15.9698 22.6019 14.0685 22.6019C10.3885 22.6019 7.29112 20.1179 6.15645 16.8059L1.49512 20.3939C3.88712 25.1472 8.73245 28.1525 14.0685 28.1525Z" fill="#34A353"/>
<path d="M6.15633 16.7752C5.57367 15.0272 5.57367 13.1259 6.15633 11.3779L1.495 7.7592C-0.498333 11.7459 -0.498333 16.4379 1.495 20.3939L6.15633 16.7752Z" fill="#F6B704"/>
<path d="M14.0685 5.58187C16.0618 5.5512 18.0245 6.31787 19.4658 7.69787L23.4831 3.64987C20.9378 1.25787 17.5645 -0.0301314 14.0685 0.000535222C8.73245 0.000535222 3.88712 3.00587 1.49512 7.7592L6.15645 11.3779C7.29112 8.0352 10.3885 5.58187 14.0685 5.58187Z" fill="#E54335"/>
</svg>
