<svg width="30" height="24" viewBox="0 0 30 24" fill="none" xmlns="http://www.w3.org/2000/svg">
<path d="M27.5808 1.93915C25.0196 -0.647036 20.8677 -0.647036 18.3065 1.93915L15.0039 5.27394L11.7021 1.93842C10.4178 0.649007 8.73952 0.000616867 7.06123 0.000616867C5.38295 0.000616867 3.70467 0.649007 2.42042 1.93842C-0.14079 4.52461 -0.14079 8.71704 2.42042 11.3032L14.9929 23.9984L15.0002 23.991L15.0083 23.9991L27.5808 11.3113C28.8578 10.0146 29.4999 8.3199 29.4999 6.62524C29.4999 4.93059 28.8578 3.23593 27.5808 1.93915V1.93915ZM26.4425 10.1619L23.1414 13.4952L15.0083 21.7077L15.0002 21.6996L14.9929 21.7069L6.8613 13.496L3.55873 10.1612C2.62473 9.21807 2.10665 7.95813 2.10665 6.62451C2.10665 5.29089 2.62473 4.03095 3.55873 3.08784C4.49273 2.14472 5.7405 1.62159 7.06123 1.62159C8.38197 1.62159 9.62974 2.14472 10.5637 3.08784L13.8663 6.42262L15.001 7.56836L16.1378 6.42041L19.4375 3.08857C20.3715 2.14546 21.6192 1.62233 22.94 1.62233C24.2607 1.62233 25.5085 2.14546 26.4425 3.08857C27.3765 4.03169 27.8946 5.29162 27.8946 6.62524C27.8946 7.95886 27.3765 9.2188 26.4425 10.1619V10.1619Z" fill="#D86145"/>
</svg>
