<svg width="36" height="50" viewBox="0 0 36 50" fill="none" xmlns="http://www.w3.org/2000/svg">
<path fill-rule="evenodd" clip-rule="evenodd" d="M32.5 15.7994L18 5.25L3.5 15.7994L4.30684 16.8343L18 6.8747L31.6874 16.8343L32.5 15.7994ZM29.3476 29.4536H6.78498V30.75H29.3476V29.4536ZM27.999 16.4949H29.3418V28.1794H27.999V16.4949ZM8.13355 16.4949H6.79074V28.1794H8.13355V16.4949ZM14.1272 28.1905H22.0054V20.5845H14.1272V28.1905ZM20.8527 27.0777H15.2798V21.6973H20.8527V27.0777Z" fill="#676767"/>
<path d="M5 47H5.93V43.55H9.35V47H10.27V39.67H9.35V42.74H5.93V39.67H5V47ZM14.9854 47.14C16.8254 47.14 18.1054 45.66 18.1054 43.31C18.1054 40.97 16.8254 39.54 14.9854 39.54C13.1354 39.54 11.8554 40.96 11.8554 43.31C11.8554 45.66 13.1354 47.14 14.9854 47.14ZM14.9854 46.32C13.6654 46.32 12.8054 45.14 12.8054 43.31C12.8054 41.48 13.6654 40.35 14.9854 40.35C16.2954 40.35 17.1654 41.48 17.1654 43.31C17.1654 45.14 16.2954 46.32 14.9854 46.32ZM19.6973 47H20.5373V42.95C20.5373 42.31 20.4673 41.43 20.4173 40.78H20.4573L21.0373 42.45L22.4273 46.27H23.0473L24.4373 42.45L25.0173 40.78H25.0673C25.0173 41.43 24.9473 42.31 24.9473 42.95V47H25.8073V39.67H24.6873L23.2973 43.6C23.1273 44.1 22.9673 44.61 22.7873 45.13H22.7473C22.5673 44.61 22.3973 44.1 22.2173 43.6L20.8073 39.67H19.6973V47ZM27.8125 47H32.1425V46.22H28.7425V43.54H31.5125V42.75H28.7425V40.45H32.0325V39.67H27.8125V47Z" fill="#676767"/>
</svg>
