<svg width="29" height="38" viewBox="0 0 29 38" fill="none" xmlns="http://www.w3.org/2000/svg">
<path d="M1 35H1.93V31.55H5.35V35H6.27V27.67H5.35V30.74H1.93V27.67H1V35ZM10.9854 35.14C12.8254 35.14 14.1054 33.66 14.1054 31.31C14.1054 28.97 12.8254 27.54 10.9854 27.54C9.13539 27.54 7.85539 28.96 7.85539 31.31C7.85539 33.66 9.13539 35.14 10.9854 35.14ZM10.9854 34.32C9.66539 34.32 8.80539 33.14 8.80539 31.31C8.80539 29.48 9.66539 28.35 10.9854 28.35C12.2954 28.35 13.1654 29.48 13.1654 31.31C13.1654 33.14 12.2954 34.32 10.9854 34.32ZM15.6973 35H16.5373V30.95C16.5373 30.31 16.4673 29.43 16.4173 28.78H16.4573L17.0373 30.45L18.4273 34.27H19.0473L20.4373 30.45L21.0173 28.78H21.0673C21.0173 29.43 20.9473 30.31 20.9473 30.95V35H21.8073V27.67H20.6873L19.2973 31.6C19.1273 32.1 18.9673 32.61 18.7873 33.13H18.7473C18.5673 32.61 18.3973 32.1 18.2173 31.6L16.8073 27.67H15.6973V35ZM23.8125 35H28.1425V34.22H24.7425V31.54H27.5125V30.75H24.7425V28.45H28.0325V27.67H23.8125V35Z" fill="#676767"/>
<path d="M23.783 10.8627L13.9796 3.43945L13.9778 3.44245L13.976 3.43945L4.17261 10.8627L4.67961 11.5323L13.9778 4.49185L23.276 11.5323L23.783 10.8627Z" fill="#676767"/>
<path d="M15.6003 15.7502V18.8702H12.4803V15.7502H15.6003ZM16.4403 14.9102H11.6403V19.7102H16.4403V14.9102Z" fill="#676767"/>
<path d="M21.3602 20.7305H6.72021V21.5705H21.3602V20.7305Z" fill="#676767"/>
<path d="M21.4099 12.0293H20.5699V19.7093H21.4099V12.0293Z" fill="#676767"/>
<path d="M7.66996 12.0293H6.82996V19.7093H7.66996V12.0293Z" fill="#676767"/>
</svg>
