<svg width="29" height="38" viewBox="0 0 29 38" fill="none" xmlns="http://www.w3.org/2000/svg">
<path d="M0.96 35H2.13V31.66H5.28V35H6.44V27.64H5.28V30.65H2.13V27.64H0.96V35ZM11.1821 35.14C13.0721 35.14 14.3821 33.67 14.3821 31.29C14.3821 28.92 13.0721 27.51 11.1821 27.51C9.28211 27.51 7.97211 28.92 7.97211 31.29C7.97211 33.67 9.28211 35.14 11.1821 35.14ZM11.1821 34.12C9.95211 34.12 9.17211 33.01 9.17211 31.29C9.17211 29.57 9.95211 28.52 11.1821 28.52C12.4021 28.52 13.1921 29.57 13.1921 31.29C13.1921 33.01 12.4021 34.12 11.1821 34.12ZM15.9112 35H16.9612V31.37C16.9612 30.7 16.8712 29.76 16.8112 29.09H16.8512L17.4412 30.79L18.7212 34.3H19.4412L20.7212 30.79L21.3212 29.09H21.3612C21.3012 29.76 21.2112 30.7 21.2112 31.37V35H22.2812V27.64H20.9412L19.6112 31.37C19.4512 31.85 19.3112 32.35 19.1312 32.85H19.0912C18.9212 32.35 18.7712 31.85 18.5912 31.37L17.2512 27.64H15.9112V35ZM24.212 35H28.682V34.02H25.382V31.65H28.072V30.66H25.382V28.62H28.572V27.64H24.212V35Z" fill="#D86145"/>
<path d="M21.6416 11.19L18.1181 8.37005L14.5946 5.55005L11.0711 8.37005L7.54761 11.19V19.7101H12.2671V14.91H16.9071V19.7101H21.6416V11.19Z" fill="#D86145"/>
<path d="M21.6706 20.73H7.51855V21.57H21.6706V20.73Z" fill="#D86145"/>
<path d="M24.0729 10.8619L14.5963 3.43872L14.5946 3.44172L14.5928 3.43872L5.11621 10.8619L5.60631 11.5315L14.5946 4.49112L23.5828 11.5315L24.0729 10.8619Z" fill="#D86145"/>
</svg>
