<svg width="36" height="36" viewBox="0 0 36 36" fill="none" xmlns="http://www.w3.org/2000/svg">
<g clip-path="url(#clip0_201_1398)">
<path d="M10.2071 7.62063C11.5575 7.62063 12.8333 8.14365 13.7883 9.08656L25.4793 20.6298L18.317 27.7017L6.62597 16.1584C5.67099 15.2155 5.14128 13.9558 5.14128 12.6225C5.14128 11.2891 5.67099 10.0295 6.62597 9.08656C7.58095 8.14365 8.85674 7.62063 10.2071 7.62063ZM10.2071 6C8.49116 6 6.77519 6.64825 5.46209 7.93738C2.84336 10.523 2.84336 14.7145 5.46209 17.3002L18.317 29.9926L27.7996 20.6298L14.9522 7.93738C13.6391 6.64825 11.9231 6 10.2071 6Z" fill="#D86145"/>
<path d="M27.9487 16.0256L21.6742 9.83041L22.2113 9.27792C23.1663 8.33501 24.4346 7.81936 25.785 7.81936C27.1354 7.81936 28.4112 8.34238 29.3662 9.28529C31.127 11.0238 31.3209 13.742 29.9258 15.6941L31.0971 16.8507C33.119 14.2577 32.9325 10.5155 30.5226 8.13612C29.217 6.84698 27.4936 6.19873 25.7776 6.19873C24.0616 6.19873 22.3456 6.84698 21.0325 8.13612L19.3613 9.84514L28.844 19.2079L29.9855 18.044L27.9487 16.0256Z" fill="#D86145"/>
</g>
<defs>
<clipPath id="clip0_201_1398">
<rect width="29" height="24" fill="white" transform="translate(3.5 6)"/>
</clipPath>
</defs>
</svg>
