<svg width="36" height="36" viewBox="0 0 36 36" fill="none" xmlns="http://www.w3.org/2000/svg">
<g clip-path="url(#clip0_53_154)">
<path d="M10.476 9.55334C11.7828 9.55334 13.0111 10.0518 13.9347 10.9577L25.2249 22.0231L18.3068 28.8034L7.01735 17.738C6.09307 16.8328 5.58446 15.6283 5.58446 14.3482C5.58446 13.0681 6.09307 11.8636 7.01735 10.9584C7.94163 10.0532 9.16992 9.55404 10.476 9.55404M10.476 8.00071C8.81836 8.00071 7.16071 8.62063 5.8964 9.85977C3.36705 12.3388 3.36705 16.3577 5.8964 18.8367L18.3075 31.0007L27.4668 22.0238L15.0556 9.85906C13.7913 8.61992 12.1337 8 10.476 8V8.00071Z" fill="#9C9C9C"/>
<path d="M27.6091 17.608L21.5519 11.6714L22.0742 11.1426C22.9971 10.2424 24.2217 9.7467 25.5242 9.7467C26.8267 9.7467 28.0593 10.2452 28.9829 11.1511C30.6867 12.8209 30.8675 15.4256 29.5268 17.2952L30.66 18.4059C32.6145 15.917 32.4308 12.333 30.1039 10.0524C28.8395 8.81328 27.1819 8.19336 25.5242 8.19336C23.8666 8.19336 22.2089 8.81328 20.9446 10.0524L19.3295 11.6898L28.4887 20.6667L29.5888 19.5518L27.6076 17.6101L27.6098 17.608H27.6091Z" fill="#9C9C9C"/>
</g>
<defs>
<clipPath id="clip0_53_154">
<rect width="28" height="23" fill="white" transform="translate(4 8)"/>
</clipPath>
</defs>
</svg>
