<svg width="24" height="38" viewBox="0 0 24 38" fill="none" xmlns="http://www.w3.org/2000/svg">
<path d="M1.96 35H6.25V34.02H3.13V27.64H1.96V35ZM7.53617 35H8.70617V27.64H7.53617V35ZM10.6221 35H11.7921V32.79L12.9221 31.4L15.0021 35H16.2821L13.6321 30.48L15.9121 27.64H14.6121L11.8121 31.12H11.7921V27.64H10.6221V35ZM17.2627 35H21.7327V34.02H18.4327V31.65H21.1227V30.66H18.4327V28.62H21.6227V27.64H17.2627V35Z" fill="#D86145"/>
<path d="M19.182 13.9629C19.2348 13.9101 19.2852 13.8567 19.335 13.8021C19.374 13.7595 19.4112 13.7157 19.4478 13.6719C19.4568 13.6611 19.4664 13.6509 19.4748 13.6401C19.5654 13.5309 19.6494 13.4175 19.728 13.3023C19.932 13.0017 20.0958 12.6825 20.22 12.3513C20.2236 12.3411 20.2272 12.3309 20.2308 12.3213C20.2494 12.2709 20.2668 12.2205 20.283 12.1701C20.2896 12.1497 20.2962 12.1293 20.3022 12.1083C20.3154 12.0657 20.328 12.0225 20.34 11.9799C20.3454 11.9601 20.3508 11.9409 20.3562 11.9211C20.3724 11.8599 20.3874 11.7987 20.4012 11.7369V11.7333C20.418 11.6607 20.4312 11.5881 20.4438 11.5155C20.4666 11.3811 20.4834 11.2467 20.4942 11.1111C20.4942 11.1051 20.4948 11.0985 20.4954 11.0925C20.5038 10.9815 20.5086 10.8705 20.5086 10.7595C20.5086 10.7235 20.5068 10.6869 20.5062 10.6509C20.5062 10.6383 20.5062 10.6257 20.505 10.6131C20.5038 10.5687 20.5014 10.5243 20.499 10.4799C20.4978 10.4649 20.4966 10.4505 20.496 10.4355C20.49 10.3479 20.481 10.2603 20.4696 10.1727C20.4684 10.1643 20.4678 10.1559 20.4666 10.1481C20.4612 10.1091 20.4552 10.0707 20.4486 10.0317C20.445 10.0077 20.4408 9.98369 20.4366 9.95969C20.43 9.92309 20.4234 9.88709 20.4162 9.85049C20.4102 9.82229 20.4042 9.79409 20.3976 9.76589C20.3856 9.71249 20.3724 9.65909 20.3586 9.60569C20.3496 9.57209 20.3412 9.53849 20.3316 9.50549C20.3232 9.47549 20.3136 9.44549 20.3046 9.41549C20.2944 9.38189 20.2836 9.34889 20.2722 9.31589C20.2632 9.28829 20.2536 9.26069 20.244 9.23309C20.2242 9.17729 20.2032 9.12149 20.181 9.06629C20.1732 9.04649 20.1642 9.02669 20.1558 9.00689C20.1384 8.96609 20.121 8.92469 20.1024 8.88449C20.0916 8.86109 20.0808 8.83769 20.07 8.81489C20.0508 8.77469 20.031 8.73449 20.0106 8.69429C20.001 8.67569 19.9914 8.65649 19.9818 8.63789C19.9518 8.58149 19.9206 8.52569 19.8882 8.47049C19.8786 8.45429 19.869 8.43869 19.8594 8.42249C19.8336 8.37989 19.8078 8.33789 19.7808 8.29649C19.7688 8.27789 19.7568 8.25989 19.7448 8.24129C19.7142 8.19569 19.6824 8.15009 19.65 8.10509C19.6428 8.09489 19.6356 8.08469 19.6284 8.07449C19.5888 8.02049 19.5474 7.96709 19.5048 7.91489C19.4928 7.90049 19.4808 7.88609 19.4688 7.87169C19.4358 7.83149 19.4016 7.79189 19.3668 7.75289C19.3536 7.73789 19.3398 7.72289 19.3266 7.70789C19.2798 7.65689 19.2324 7.60649 19.1832 7.55669C19.1004 7.47329 19.0152 7.39409 18.9276 7.31909C18.84 7.24409 18.7506 7.17269 18.6588 7.10549C18.5976 7.06049 18.5358 7.01729 18.4728 6.97589C18.3 6.86189 18.1212 6.76229 17.9382 6.67409C17.9022 6.65669 17.8668 6.64049 17.8302 6.62429C17.7144 6.57269 17.5974 6.52469 17.4786 6.48329C17.271 6.41069 17.0592 6.35369 16.845 6.31229C16.7022 6.28469 16.5582 6.26369 16.4142 6.24989C16.2732 6.23669 16.1316 6.22949 15.99 6.22949C15.9864 6.22949 15.9834 6.22949 15.9798 6.22949C15.9102 6.22949 15.8406 6.23129 15.771 6.23429C15.7386 6.23609 15.7062 6.23849 15.6732 6.24089C15.6372 6.24329 15.6012 6.24509 15.5652 6.24869C15.5214 6.25289 15.4776 6.25829 15.4344 6.26369C15.4104 6.26669 15.3864 6.26909 15.363 6.27209C15.312 6.27929 15.261 6.28769 15.21 6.29609C15.1944 6.29849 15.1788 6.30089 15.1632 6.30389C15.1068 6.31409 15.0504 6.32609 14.9946 6.33869C14.985 6.34049 14.976 6.34289 14.9664 6.34469C14.9058 6.35849 14.8458 6.37349 14.7858 6.39029C14.781 6.39149 14.7768 6.39269 14.772 6.39389C14.709 6.41129 14.6466 6.42989 14.5842 6.45029L14.58 6.45149C14.5158 6.47249 14.4522 6.49469 14.3886 6.51809C14.3868 6.51869 14.385 6.51929 14.3832 6.51989C14.3742 6.52349 14.3652 6.52709 14.3562 6.53069C14.3052 6.55049 14.2542 6.57089 14.2038 6.59249C14.1846 6.60089 14.1654 6.60929 14.1468 6.61769C14.1048 6.63629 14.0628 6.65549 14.0208 6.67589C14.0028 6.68489 13.9842 6.69329 13.9662 6.70229C13.9086 6.73109 13.851 6.76049 13.794 6.79229C13.7862 6.79649 13.7778 6.80129 13.77 6.80549C13.7016 6.84389 13.6338 6.88409 13.5672 6.92609C13.5606 6.93029 13.554 6.93449 13.5468 6.93869C13.5102 6.96209 13.4742 6.98609 13.4376 7.01009C13.3218 7.08869 13.209 7.17269 13.0992 7.26329C13.0884 7.27229 13.0782 7.28129 13.068 7.29029C13.0242 7.32749 12.9798 7.36469 12.9372 7.40369C12.8826 7.45289 12.8292 7.50389 12.7764 7.55669L13.3704 8.15069L18.5886 13.3689L19.1826 13.9629H19.182Z" fill="#D86145"/>
<path d="M11.2681 7.53168C10.3837 6.64728 9.22447 6.20508 8.06467 6.20508C6.90487 6.20508 5.74627 6.64728 4.86127 7.53168C3.09247 9.30048 3.09247 12.1691 4.86127 13.9379L12.0949 21.1715L18.5011 14.7653L11.2675 7.53168H11.2681Z" fill="#D86145"/>
</svg>
