<svg width="24" height="38" viewBox="0 0 24 38" fill="none" xmlns="http://www.w3.org/2000/svg">
<path d="M2 35H6.13V34.22H2.93V27.67H2V35ZM7.42969 35H8.35969V27.67H7.42969V35ZM10.3594 35H11.2894V32.68L12.5494 31.19L14.7494 35H15.7694L13.1194 30.46L15.4194 27.67H14.3694L11.3094 31.36H11.2894V27.67H10.3594V35ZM16.8242 35H21.1542V34.22H17.7542V31.54H20.5242V30.75H17.7542V28.45H21.0442V27.67H16.8242V35Z" fill="#676767"/>
<path d="M8.06456 5.66458C9.05036 5.66458 9.97676 6.04858 10.674 6.74518L17.3136 13.3848L12.0954 18.603L5.45576 11.9634C4.01696 10.5246 4.01696 8.18338 5.45576 6.74518C6.15296 6.04798 7.07936 5.66458 8.06516 5.66458M8.06516 4.82458C6.90596 4.82458 5.74676 5.26678 4.86176 6.15118C3.09296 7.91998 3.09296 10.7886 4.86176 12.5574L12.0954 19.791L18.5016 13.3848L11.268 6.15118C10.3836 5.26678 9.22436 4.82458 8.06456 4.82458H8.06516Z" fill="#676767"/>
<path d="M20.1982 10.9998C20.8018 9.3882 20.4568 7.5018 19.1602 6.2052C18.2758 5.3208 17.1166 4.8786 15.9568 4.8786C15.4168 4.8786 14.8774 4.9758 14.365 5.1678C14.0338 5.292 13.7146 5.4558 13.4146 5.6598C13.1818 5.8182 12.9598 5.9994 12.7534 6.2058L19.1596 12.612C19.366 12.4056 19.5472 12.1836 19.7056 11.9508L19.0996 11.3448L14.0212 6.2664C14.335 6.072 14.6758 5.9274 15.0328 5.8356C15.331 5.7588 15.6412 5.7192 15.9568 5.7192C16.9426 5.7192 17.869 6.1032 18.5662 6.7998C19.2634 7.497 19.6468 8.4234 19.6468 9.4092C19.6468 9.7254 19.6072 10.035 19.5304 10.3332L20.1976 11.0004L20.1982 10.9998Z" fill="#676767"/>
</svg>
