<svg width="24" height="38" viewBox="0 0 24 38" fill="none" xmlns="http://www.w3.org/2000/svg">
<path d="M2 35H6.13V34.22H2.93V27.67H2V35ZM7.42969 35H8.35969V27.67H7.42969V35ZM10.3594 35H11.2894V32.68L12.5494 31.19L14.7494 35H15.7694L13.1194 30.46L15.4194 27.67H14.3694L11.3094 31.36H11.2894V27.67H10.3594V35ZM16.8242 35H21.1542V34.22H17.7542V31.54H20.5242V30.75H17.7542V28.45H21.0442V27.67H16.8242V35Z" fill="#D86145"/>
<path d="M8.06456 5.66471C9.05036 5.66471 9.97676 6.04871 10.674 6.74531L17.3136 13.3849L12.0954 18.6031L5.45576 11.9635C4.01696 10.5247 4.01696 8.18351 5.45576 6.74531C6.15296 6.04811 7.07936 5.66471 8.06516 5.66471M8.06516 4.82471C6.90596 4.82471 5.74676 5.26691 4.86176 6.15131C3.09296 7.92011 3.09296 10.7887 4.86176 12.5575L12.0954 19.7911L18.5016 13.3849L11.268 6.15131C10.3836 5.26691 9.22436 4.82471 8.06456 4.82471H8.06516Z" fill="#D86145"/>
<path d="M20.1983 10.9999C20.8019 9.38826 20.4569 7.50186 19.1603 6.20526C18.2759 5.32086 17.1167 4.87866 15.9569 4.87866C15.4169 4.87866 14.8775 4.97586 14.3651 5.16786C14.0339 5.29206 13.7147 5.45586 13.4147 5.65986C13.1819 5.81826 12.9599 5.99946 12.7535 6.20586L19.1597 12.6121C19.3661 12.4057 19.5473 12.1837 19.7057 11.9509L19.0997 11.3449L14.0213 6.26646C14.3351 6.07206 14.6759 5.92746 15.0329 5.83566C15.3311 5.75886 15.6413 5.71926 15.9569 5.71926C16.9427 5.71926 17.8691 6.10326 18.5663 6.79986C19.2635 7.49706 19.6469 8.42346 19.6469 9.40926C19.6469 9.72546 19.6073 10.0351 19.5305 10.3333L20.1977 11.0005L20.1983 10.9999Z" fill="#D86145"/>
</svg>
