<svg width="36" height="50" viewBox="0 0 36 50" fill="none" xmlns="http://www.w3.org/2000/svg">
<g clip-path="url(#clip0_553_1241)">
<path d="M10.2073 7.62063C11.5577 7.62063 12.8335 8.14365 13.7884 9.08656L25.4795 20.6298L18.3171 27.7017L6.6261 16.1584C5.67112 15.2155 5.1414 13.9558 5.1414 12.6225C5.1414 11.2891 5.67112 10.0295 6.6261 9.08656C7.58107 8.14365 8.85686 7.62063 10.2073 7.62063ZM10.2073 6C8.49129 6 6.77531 6.64825 5.46222 7.93738C2.84349 10.523 2.84349 14.7145 5.46222 17.3002L18.3171 29.9926L27.7997 20.6298L14.9523 7.93738C13.6392 6.64825 11.9232 6 10.2073 6Z" fill="#D86145"/>
<path d="M27.949 16.0259L21.6745 9.83065L22.2116 9.27816C23.1666 8.33525 24.435 7.8196 25.7854 7.8196C27.1358 7.8196 28.4115 8.34262 29.3665 9.28553C31.1273 11.024 31.3212 13.7423 29.9261 15.6944L31.0974 16.8509C33.1193 14.2579 32.9328 10.5157 30.5229 8.13636C29.2173 6.84723 27.4939 6.19897 25.7779 6.19897C24.0619 6.19897 22.3459 6.84723 21.0328 8.13636L19.3616 9.84538L28.8443 19.2082L29.9858 18.0443L27.949 16.0259Z" fill="#D86145"/>
</g>
<path d="M9 47H13.13V46.22H9.93V39.67H9V47ZM14.4297 47H15.3597V39.67H14.4297V47ZM17.3594 47H18.2894V44.68L19.5494 43.19L21.7494 47H22.7694L20.1194 42.46L22.4194 39.67H21.3694L18.3094 43.36H18.2894V39.67H17.3594V47ZM23.8242 47H28.1542V46.22H24.7542V43.54H27.5242V42.75H24.7542V40.45H28.0442V39.67H23.8242V47Z" fill="#D86145"/>
<defs>
<clipPath id="clip0_553_1241">
<rect width="29" height="24" fill="white" transform="translate(3.5 6)"/>
</clipPath>
</defs>
</svg>
