<svg width="64" height="61" viewBox="0 0 64 61" fill="none" xmlns="http://www.w3.org/2000/svg">
<g clip-path="url(#clip0_190_1140)">
<path d="M64 25.97C64 11.65 49.65 0 32 0C14.35 0 0 11.65 0 25.97C0 38.81 11.38 49.56 26.76 51.59C27.8 51.81 29.22 52.28 29.58 53.17C29.9 53.98 29.79 55.25 29.68 56.06L29.22 58.8C29.08 59.61 28.58 61.96 31.99 60.52C35.4 59.08 50.42 49.67 57.13 41.94C61.77 36.86 63.99 31.69 63.99 25.96" fill="white"/>
<path d="M25.4999 19.05H23.2499C22.9099 19.05 22.6299 19.33 22.6299 19.67V33.61C22.6299 33.95 22.9099 34.23 23.2499 34.23H25.4999C25.8399 34.23 26.1199 33.96 26.1199 33.61V19.67C26.1199 19.33 25.8399 19.05 25.4999 19.05ZM40.9499 19.04H38.7099C38.3599 19.04 38.0899 19.32 38.0899 19.66V27.94L31.6899 19.31C31.6899 19.31 31.6599 19.27 31.6399 19.25C31.6399 19.25 31.6199 19.22 31.5999 19.21L31.5599 19.17H31.5399L31.5099 19.14H31.4899L31.4599 19.11H31.4399C31.4399 19.11 31.4199 19.09 31.3999 19.08C31.3799 19.07 31.3899 19.08 31.3799 19.08C31.3699 19.08 31.3599 19.08 31.3399 19.07H31.3199C31.3199 19.07 31.2999 19.06 31.2899 19.06H31.2599C31.2599 19.06 31.2399 19.06 31.2299 19.06H28.9299C28.5899 19.06 28.3099 19.34 28.3099 19.68V33.62C28.3099 33.96 28.5899 34.24 28.9299 34.24H31.1799C31.5199 34.24 31.7999 33.96 31.7999 33.62V25.34L38.1999 33.98C38.2399 34.04 38.2999 34.09 38.3599 34.13C38.3799 34.14 38.3899 34.15 38.3999 34.16C38.3999 34.16 38.4099 34.16 38.4199 34.16C38.4299 34.16 38.4399 34.16 38.4499 34.17C38.4599 34.18 38.4699 34.17 38.4799 34.18L38.5399 34.2C38.5899 34.21 38.6499 34.22 38.7099 34.22H40.9499C41.2899 34.22 41.5699 33.95 41.5699 33.6V19.66C41.5699 19.32 41.2899 19.04 40.9499 19.04Z" fill="#00B900"/>
<path d="M20.0898 30.7498H13.9898V19.6898C13.9898 19.3498 13.7098 19.0698 13.3698 19.0698H11.1298C10.7898 19.0698 10.5098 19.3498 10.5098 19.6898V33.6298C10.5098 33.7898 10.5698 33.9498 10.6798 34.0598C10.6898 34.0698 10.6898 34.0798 10.6998 34.0798C10.8098 34.1898 10.9598 34.2498 11.1298 34.2498H20.0998C20.4398 34.2498 20.7198 33.9698 20.7198 33.6298V31.3898C20.7198 31.0498 20.4398 30.7698 20.0998 30.7698M53.3598 22.5598C53.6998 22.5598 53.9798 22.2798 53.9798 21.9398V19.6998C53.9798 19.3598 53.6998 19.0798 53.3598 19.0798H44.3898C44.2198 19.0798 44.0698 19.1498 43.9598 19.2598C43.9498 19.2698 43.9398 19.2698 43.9398 19.2798C43.8298 19.3798 43.7698 19.5398 43.7698 19.7098V33.6498C43.7698 33.8098 43.8298 33.9698 43.9398 34.0798L43.9598 34.0998C44.0798 34.2098 44.2298 34.2698 44.3898 34.2698H53.3598C53.6998 34.2698 53.9798 33.9898 53.9798 33.6498V31.3998C53.9798 31.0598 53.6998 30.7798 53.3598 30.7798H47.2598V28.4198H53.3598C53.6998 28.4198 53.9798 28.1498 53.9798 27.7998V25.5398C53.9798 25.1998 53.6998 24.9198 53.3598 24.9198H47.2598V22.5598H53.3598Z" fill="#00B900"/>
</g>
<defs>
<clipPath id="clip0_190_1140">
<rect width="64" height="60.98" fill="white"/>
</clipPath>
</defs>
</svg>
