<svg width="31" height="30" viewBox="0 0 31 30" fill="none" xmlns="http://www.w3.org/2000/svg">
<g clip-path="url(#clip0_215_1380)">
<path d="M31 12.7763C31 5.73139 24.0492 0 15.5 0C6.95078 0 0 5.73139 0 12.7763C0 19.0931 5.51219 24.3818 12.9619 25.3805C13.4656 25.4887 14.1534 25.7199 14.3278 26.1578C14.4828 26.5562 14.4295 27.181 14.3763 27.5795L14.1534 28.9275C14.0856 29.326 13.8434 30.4821 15.4952 29.7737C17.1469 29.0653 24.4222 24.4359 27.6723 20.633C29.9198 18.1338 30.9952 15.5904 30.9952 12.7714" fill="white"/>
<path d="M12.3521 9.37192H11.2622C11.0975 9.37192 10.9619 9.50967 10.9619 9.67694V16.5349C10.9619 16.7022 11.0975 16.8399 11.2622 16.8399H12.3521C12.5168 16.8399 12.6524 16.7071 12.6524 16.5349V9.67694C12.6524 9.50967 12.5168 9.37192 12.3521 9.37192ZM19.8357 9.367H18.7507C18.5811 9.367 18.4504 9.50475 18.4504 9.67202V13.7455L15.3504 9.49983C15.3504 9.49983 15.3358 9.48016 15.3261 9.47032C15.3261 9.47032 15.3164 9.45556 15.3068 9.45064L15.2874 9.43096H15.2777L15.2632 9.4162H15.2535L15.2389 9.40144H15.2293C15.2293 9.40144 15.2196 9.3916 15.2099 9.38668C15.2002 9.38176 15.205 9.38668 15.2002 9.38668C15.1954 9.38668 15.1905 9.38668 15.1808 9.38176H15.1711C15.1711 9.38176 15.1614 9.37684 15.1566 9.37684H15.1421C15.1421 9.37684 15.1324 9.37684 15.1275 9.37684H14.0135C13.8488 9.37684 13.7132 9.51459 13.7132 9.68186V16.5398C13.7132 16.7071 13.8488 16.8449 14.0135 16.8449H15.1033C15.268 16.8449 15.4036 16.7071 15.4036 16.5398V12.4664L18.5036 16.717C18.523 16.7465 18.5521 16.7711 18.5811 16.7908C18.5908 16.7957 18.5957 16.8006 18.6005 16.8055C18.6005 16.8055 18.6054 16.8055 18.6102 16.8055C18.615 16.8055 18.6199 16.8055 18.6247 16.8104C18.6296 16.8153 18.6344 16.8104 18.6393 16.8153L18.6683 16.8252C18.6925 16.8301 18.7216 16.835 18.7507 16.835H19.8357C20.0004 16.835 20.136 16.7022 20.136 16.53V9.67202C20.136 9.50475 20.0004 9.367 19.8357 9.367Z" fill="#00B900"/>
<path d="M9.73113 15.1279H6.77645V9.68678C6.77645 9.51951 6.64082 9.38176 6.47613 9.38176H5.39113C5.22645 9.38176 5.09082 9.51951 5.09082 9.68678V16.5448C5.09082 16.6235 5.11988 16.7022 5.17316 16.7563C5.17801 16.7612 5.17801 16.7661 5.18285 16.7661C5.23613 16.8203 5.30879 16.8498 5.39113 16.8498H9.73598C9.90066 16.8498 10.0363 16.712 10.0363 16.5448V15.4428C10.0363 15.2755 9.90066 15.1377 9.73598 15.1377M25.8463 11.0987C26.011 11.0987 26.1466 10.961 26.1466 10.7937V9.6917C26.1466 9.52443 26.011 9.38668 25.8463 9.38668H21.5014C21.4191 9.38668 21.3464 9.42112 21.2932 9.47523C21.2883 9.48015 21.2835 9.48015 21.2835 9.48507C21.2302 9.53427 21.2011 9.61298 21.2011 9.69662V16.5546C21.2011 16.6333 21.2302 16.712 21.2835 16.7661L21.2932 16.776C21.3513 16.8301 21.4239 16.8596 21.5014 16.8596H25.8463C26.011 16.8596 26.1466 16.7219 26.1466 16.5546V15.4477C26.1466 15.2804 26.011 15.1427 25.8463 15.1427H22.8916V13.9816H25.8463C26.011 13.9816 26.1466 13.8488 26.1466 13.6766V12.5648C26.1466 12.3975 26.011 12.2598 25.8463 12.2598H22.8916V11.0987H25.8463Z" fill="#00B900"/>
</g>
<defs>
<clipPath id="clip0_215_1380">
<rect width="31" height="30" rx="5" fill="white"/>
</clipPath>
</defs>
</svg>
