<svg width="148" height="77" viewBox="0 0 148 77" fill="none" xmlns="http://www.w3.org/2000/svg">
<g clip-path="url(#clip0_52_71)">
<path d="M20.4723 55.5133L22.0961 56.709C20.3008 66.0555 15.2857 72.7027 7.05902 76.6532L5.28865 74.6918C9.03962 73.1271 12.1516 70.8272 14.6246 67.795C16.9869 64.9014 18.5498 61.5418 19.3133 57.7105H10.633C8.7464 61.0618 6.42833 63.8888 3.67873 66.1942L1.87793 64.5185C5.9885 61.1866 8.94557 56.8588 10.7519 51.5322L13.1032 52.2063C12.904 52.8749 12.4586 53.9763 11.7643 55.5133H20.4751H20.4723Z" fill="white"/>
<path d="M32.1592 60.3155H52.5267L53.9845 61.6916C52.6844 65.9917 50.6844 69.4068 47.9846 71.9397C45.6223 74.1536 42.585 75.8404 38.8727 76.9973L37.2794 74.7223C44.1977 73.1577 48.7426 69.1128 50.9168 62.5877H32.1592V60.3128V60.3155ZM34.7788 53.5824H51.3345V55.8573H34.7788V53.5824V53.5824Z" fill="white"/>
<path d="M82.0343 55.0194L83.4478 56.3372C82.0371 66.3107 76.8034 72.8802 67.7414 76.0429L65.9987 73.8873C74.3664 71.3238 79.2653 65.7892 80.6927 57.2805L63.3486 57.594V55.2608L82.0343 55.0222V55.0194Z" fill="white"/>
<path d="M112.019 58.5649L113.419 59.9854C111.712 63.3755 109.558 66.2441 106.957 68.5884L105.187 67.0625C107.511 65.0373 109.256 62.9233 110.429 60.7178L95.0654 61.1062V58.9367L112.022 58.5622L112.019 58.5649ZM96.0751 74.7528C98.7057 73.4573 100.432 71.8398 101.256 69.9062C101.793 68.5995 102.075 66.2414 102.105 62.829H104.368C104.338 66.7185 103.923 69.5261 103.118 71.2517C102.205 73.2769 100.404 75.0219 97.7127 76.4895L96.0751 74.7528Z" fill="white"/>
<path d="M131.004 60.8094C129.009 58.9839 126.805 57.3887 124.393 56.021L125.942 53.9402C128.105 54.9972 130.384 56.5286 132.774 58.5344L131.004 60.8094V60.8094ZM124.603 72.6583C133.764 71.0714 140.301 65.9362 144.21 57.2472L146.129 58.9672C142.298 67.5065 135.654 72.8775 126.193 75.0802L124.6 72.6555L124.603 72.6583Z" fill="white"/>
<path d="M78.6268 24.3082L92.3472 10.5478C94.2061 13.7132 95.2738 17.4003 95.2738 21.3342C95.2738 26.7939 93.2158 31.7793 89.841 35.5579L78.6268 24.311V24.3082ZM74.0045 0C80.4746 0 86.2781 2.91299 90.1812 7.49887H57.8278C61.7309 2.91299 67.5344 0 74.0045 0ZM52.7352 21.3314C52.7352 17.1062 53.9661 13.1639 56.0878 9.8459H89.7331L76.9699 22.6464L70.6878 16.346L69.0309 18.005L75.3129 24.3054L61.2606 38.3987C56.0878 34.5037 52.7324 28.3032 52.7324 21.3286L52.7352 21.3314ZM63.2495 39.7276L76.9699 25.9672L88.184 37.2141C84.4192 40.5987 79.4456 42.6628 74.0017 42.6628C70.0793 42.6628 66.403 41.5919 63.2467 39.7276H63.2495Z" fill="white"/>
<path d="M133.972 41.3922L147.701 24.9296C146.404 32.5533 141.059 38.8121 133.972 41.3922V41.3922ZM148 20.9125L131.867 40.2547V0.62976C140.993 2.90744 147.809 11.1082 148 20.9125ZM121.411 0.676923L109.597 33.9488C107.002 30.4116 105.467 26.0504 105.467 21.3314C105.467 11.4134 112.252 3.05448 121.411 0.676923V0.676923ZM111.342 36.0351L124.078 0.166457C124.949 0.0582598 125.837 0 126.736 0C127.682 0 128.614 0.0638083 129.527 0.183102V42.4797C128.614 42.599 127.682 42.6628 126.736 42.6628C120.686 42.6628 115.218 40.116 111.342 36.0351V36.0351Z" fill="white"/>
<path d="M42.1126 17.0729H29.4766V1.65347C35.8804 4.35006 40.6991 10.0984 42.1126 17.0757V17.0729ZM21.2693 0C23.3025 0 25.272 0.288525 27.1337 0.82396V17.0729H0.425995C2.3983 7.34351 10.9956 0 21.2693 0ZM0 21.3314C0 20.6878 0.0304282 20.0497 0.0857522 19.4199H25.4795L7.43278 37.5193C2.88515 33.6048 0 27.801 0 21.3314ZM9.30826 38.9619L27.1337 21.0817V39.8747L24.5196 37.253L22.8626 38.912L26.0576 42.1163C24.5168 42.4741 22.9124 42.6628 21.2665 42.6628C16.8351 42.6628 12.7162 41.2951 9.3055 38.9591L9.30826 38.9619ZM29.4766 41.0121V19.4227H42.4529C42.5082 20.0525 42.5386 20.6905 42.5386 21.3342C42.5386 30.1813 37.1418 37.7856 29.4739 41.0149L29.4766 41.0121Z" fill="white"/>
</g>
<defs>
<clipPath id="clip0_52_71">
<rect width="148" height="77" fill="white"/>
</clipPath>
</defs>
</svg>
