<svg width="90" height="26" viewBox="0 0 90 26" fill="none" xmlns="http://www.w3.org/2000/svg">
<path d="M47.2961 14.5885L55.5498 6.3301C56.6676 8.23124 57.3099 10.4426 57.3099 12.8035C57.3099 16.0792 56.0729 19.0717 54.0425 21.3387L47.2961 14.5885ZM44.5152 0.00146484C48.4075 0.00146484 51.8976 1.74987 54.246 4.50215H34.7844C37.1328 1.74987 40.6245 0.00146484 44.5152 0.00146484ZM31.7205 12.8035C31.7205 10.2676 32.4614 7.90192 33.7366 5.91169H53.9757L46.2992 13.5926L42.5213 9.81101L41.526 10.8069L45.3054 14.5885L36.8498 23.0474C33.7382 20.7087 31.7205 16.9876 31.7205 12.8035ZM38.0455 23.8428L46.2992 15.5844L53.0455 22.3346C50.7798 24.3662 47.789 25.604 44.5152 25.604C42.1572 25.604 39.9455 24.9612 38.0455 23.8428Z" fill="#D86145"/>
<path d="M80.5891 24.842L88.8475 14.9625C88.0668 19.538 84.8535 23.2925 80.5891 24.842ZM89.0272 12.5507L79.3234 24.1595V0.378636C84.8137 1.74523 88.9127 6.6675 89.0272 12.5507ZM73.0318 0.407273L65.9261 20.3748C64.3647 18.2525 63.4409 15.6339 63.4409 12.8036C63.4425 6.85046 67.5224 1.83432 73.0318 0.407273ZM66.9755 21.6268L74.6361 0.100227C75.1608 0.0350002 75.6935 0 76.2356 0C76.8049 0 77.3646 0.0381819 77.9147 0.109773V25.4927C77.3646 25.5659 76.8049 25.6025 76.2356 25.6025C72.5961 25.6041 69.308 24.0768 66.9755 21.6268Z" fill="#D86145"/>
<path d="M25.3335 10.2469H17.7317V0.992601C21.5827 2.61056 24.4828 6.06124 25.3335 10.2469ZM12.7947 0.00146484C14.0174 0.00146484 15.202 0.174874 16.3229 0.496238V10.2469H0.25758C1.44372 4.40828 6.6144 0.00146484 12.7947 0.00146484ZM0 12.8035C0 12.4169 0.01749 12.0351 0.05247 11.6565H15.3276L4.47267 22.5176C1.73628 20.1678 0 16.6853 0 12.8035ZM5.59998 23.3831L16.3229 12.654V23.9319L14.7504 22.3601L13.7551 23.356L15.6774 25.2794C14.7504 25.4942 13.7853 25.6071 12.7947 25.6071C10.1283 25.604 7.65108 24.7846 5.59998 23.3831ZM17.7317 24.6128V11.6565H25.5386C25.572 12.0351 25.591 12.4169 25.591 12.8035C25.5895 18.1124 22.3427 22.6767 17.7317 24.6128Z" fill="#D86145"/>
</svg>
