<svg width="1000" height="220" viewBox="0 0 1000 220" fill="none" xmlns="http://www.w3.org/2000/svg">
<path d="M325.57 121.83L377.48 69.9199C384.51 81.8699 388.55 95.7699 388.55 110.61C388.55 131.2 380.77 150.01 368 164.26L325.57 121.83ZM308.08 30.1399C332.56 30.1399 354.51 41.1299 369.28 58.4299H246.88C261.65 41.1299 283.61 30.1399 308.08 30.1399ZM227.61 110.61C227.61 94.6699 232.27 79.7999 240.29 67.2899H367.58L319.3 115.57L295.54 91.7999L289.28 98.0599L313.05 121.83L259.87 175C240.3 160.3 227.61 136.91 227.61 110.61ZM267.39 180L319.3 128.09L361.73 170.52C347.48 183.29 328.67 191.07 308.08 191.07C293.25 191.07 279.34 187.03 267.39 180Z" fill="#D86145"/>
<path d="M534.96 186.28L586.9 124.18C581.99 152.94 561.78 176.54 534.96 186.28ZM588.03 109.02L527 181.99V32.5099C561.53 41.0999 587.31 72.0399 588.03 109.02ZM487.43 32.6899L442.74 158.2C432.92 144.86 427.11 128.4 427.11 110.61C427.12 73.1899 452.78 41.6599 487.43 32.6899ZM449.34 166.07L497.52 30.7599C500.82 30.3499 504.17 30.1299 507.58 30.1299C511.16 30.1299 514.68 30.3699 518.14 30.8199V190.37C514.68 190.83 511.16 191.06 507.58 191.06C484.69 191.07 464.01 181.47 449.34 166.07Z" fill="#D86145"/>
<path d="M187.44 94.5399H139.63V36.3699C163.85 46.5399 182.09 68.2299 187.44 94.5399ZM108.58 30.1399C116.27 30.1399 123.72 31.2299 130.77 33.2499V94.5399H29.73C37.19 57.8399 69.71 30.1399 108.58 30.1399ZM28.11 110.61C28.11 108.18 28.22 105.78 28.44 103.4H124.51L56.24 171.67C39.03 156.9 28.11 135.01 28.11 110.61ZM63.33 177.11L130.77 109.67V180.56L120.88 170.68L114.62 176.94L126.71 189.03C120.88 190.38 114.81 191.09 108.58 191.09C91.81 191.07 76.23 185.92 63.33 177.11ZM139.63 184.84V103.4H188.73C188.94 105.78 189.06 108.18 189.06 110.61C189.05 143.98 168.63 172.67 139.63 184.84Z" fill="#D86145"/>
<path d="M779.63 54.5498V45.6098H712.34V29.0898H703.4V45.6098H636.1V54.5498H673.87L684.68 72.5398H639.7V185.41H648.64V81.4798H685L670.33 107.95L678.15 112.28L695.22 81.4798H717.13V108.56H743.03V99.6198H726.07V81.4798H768.12V176.47H739.66V185.41H777.05V72.5398H729.5L740.31 54.5498H779.63ZM719.06 72.5398H717.12H695.11L684.3 54.5498H729.87L719.06 72.5398Z" fill="#D86145"/>
<path d="M743.02 118.66H672.72V165.91H743.02V118.66ZM734.08 156.98H681.65V127.6H734.08V156.98Z" fill="#D86145"/>
<path d="M904.59 45.4499V28.9299H895.65V45.4499H835.43L823.9 184.84L832.81 185.57L843.66 54.3799H971.88V45.4499H904.59Z" fill="#D86145"/>
<path d="M912.2 67.6899H903.26V90.8599V99.7999V118.5H857V185.2H958.45V118.5H912.2V99.7999H958.46V90.8599H912.2V67.6899ZM949.52 176.26H865.94V127.44H949.52V176.26Z" fill="#D86145"/>
</svg>
