<svg width="22" height="22" viewBox="0 0 22 22" fill="none" xmlns="http://www.w3.org/2000/svg">
<path d="M10.234 16H11.508V13.522H14.056V12.78H11.508V11.758H14.056V11.03H11.83L14.406 6.018H13.118L11.886 8.706C11.564 9.392 11.27 10.078 10.934 10.82H10.864C10.528 10.078 10.234 9.392 9.926 8.706L8.708 6.018H7.364L9.912 11.03H7.714V11.758H10.234V12.78H7.714V13.522H10.234V16Z" fill="#555555"/>
<path d="M11 21C5.47715 21 1 16.5228 1 11C1 5.47715 5.47715 1 11 1C16.5228 1 21 5.47715 21 11C21 16.5228 16.5228 21 11 21Z" stroke="#555555" stroke-width="1.5" stroke-linecap="round" stroke-linejoin="round"/>
</svg>
