<svg width="24" height="38" viewBox="0 0 24 38" fill="none" xmlns="http://www.w3.org/2000/svg">
<path d="M5.96 35H7.01V31.37C7.01 30.7 6.92 29.76 6.86 29.09H6.9L7.49 30.79L8.77 34.3H9.49L10.77 30.79L11.37 29.09H11.41C11.35 29.76 11.26 30.7 11.26 31.37V35H12.33V27.64H10.99L9.66 31.37C9.5 31.85 9.36 32.35 9.18 32.85H9.14C8.97 32.35 8.82 31.85 8.64 31.37L7.3 27.64H5.96V35ZM15.4808 35H16.6408V32.22L18.8508 27.64H17.6408L16.7908 29.6C16.5608 30.14 16.3308 30.66 16.0808 31.22H16.0408C15.8008 30.66 15.5908 30.14 15.3608 29.6L14.5008 27.64H13.2608L15.4808 32.22V35Z" fill="#D86145"/>
<path d="M12 10.2907C13.6072 10.2907 14.91 8.98785 14.91 7.3807C14.91 5.77355 13.6072 4.4707 12 4.4707C10.3929 4.4707 9.09003 5.77355 9.09003 7.3807C9.09003 8.98785 10.3929 10.2907 12 10.2907Z" fill="#D86145"/>
<path d="M19.83 20.6699H3.87V21.5099H19.83V20.6699Z" fill="#D86145"/>
<path d="M19.83 11.3105H3.87V12.1505H19.83V11.3105Z" fill="#D86145"/>
<path d="M19.41 11.3105H3.87V19.6505H19.41V11.3105Z" fill="#D86145"/>
<path d="M19.83 11.3105H18.99V19.6505H19.83V11.3105Z" fill="#D86145"/>
</svg>
