<svg width="36" height="36" viewBox="0 0 36 36" fill="none" xmlns="http://www.w3.org/2000/svg">
<g clip-path="url(#clip0_201_1396)">
<path d="M6.75 29.209H29.25V30.4946H6.75V29.209Z" fill="#D86145"/>
<path d="M29.25 27.9621H27.9109V17.7988H8.08908V27.9621H6.75V16.5132H29.25V27.9621Z" fill="#D86145"/>
<path d="M18.0201 13.2246C15.8017 13.2246 13.9971 11.4921 13.9971 9.36228C13.9971 7.23251 15.8017 5.5 18.0201 5.5C20.2385 5.5 22.043 7.23251 22.043 9.36228C22.043 11.4921 20.2385 13.2246 18.0201 13.2246ZM18.0201 6.78559C16.5373 6.78559 15.3362 7.93876 15.3362 9.36228C15.3362 10.7858 16.5373 11.939 18.0201 11.939C19.5028 11.939 20.704 10.7858 20.704 9.36228C20.704 7.93876 19.5028 6.78559 18.0201 6.78559Z" fill="#D86145"/>
</g>
<defs>
<clipPath id="clip0_201_1396">
<rect width="22.5" height="25" fill="white" transform="translate(6.75 5.5)"/>
</clipPath>
</defs>
</svg>
