<svg width="36" height="36" viewBox="0 0 36 36" fill="none" xmlns="http://www.w3.org/2000/svg">
<g clip-path="url(#clip0_53_152)">
<path d="M6 30.5581H30V31.9999H6V30.5581Z" fill="#d86145"/>
<path d="M30 29.1603H28.5692V17.7773H7.43023V29.1597H6V16.3354H30V29.1597V29.1603Z" fill="#d86145"/>
<path d="M18.0199 12.6521C15.6524 12.6521 13.7286 10.7128 13.7286 8.32604C13.7286 5.9393 15.6524 4 18.0199 4C20.3875 4 22.3112 5.9393 22.3112 8.32604C22.3112 10.7128 20.3875 12.6521 18.0199 12.6521ZM18.0199 5.44181C16.4389 5.44181 15.1589 6.7322 15.1589 8.32604C15.1589 9.91988 16.4389 11.2103 18.0199 11.2103C19.601 11.2103 20.881 9.91988 20.881 8.32604C20.881 6.7322 19.601 5.44181 18.0199 5.44181Z" fill="#d86145"/>
</g>
<defs>
<clipPath id="clip0_53_152">
<rect width="24" height="28" fill="white" transform="translate(6 4)"/>
</clipPath>
</defs>
</svg>
