<svg width="24" height="38" viewBox="0 0 24 38" fill="none" xmlns="http://www.w3.org/2000/svg">
<path d="M6 35H6.84V30.95C6.84 30.31 6.77 29.43 6.72 28.78H6.76L7.34 30.45L8.73 34.27H9.35L10.74 30.45L11.32 28.78H11.37C11.32 29.43 11.25 30.31 11.25 30.95V35H12.11V27.67H10.99L9.6 31.6C9.43 32.1 9.27 32.61 9.09 33.13H9.05C8.87 32.61 8.7 32.1 8.52 31.6L7.11 27.67H6V35ZM15.3052 35H16.2252V32.16L18.4252 27.67H17.4752L16.5252 29.75C16.2952 30.29 16.0452 30.8 15.7852 31.35H15.7452C15.4952 30.8 15.2752 30.29 15.0252 29.75L14.0852 27.67H13.0952L15.3052 32.16V35Z" fill="#676767"/>
<path d="M4.71 11.3101H3.87V19.6501H4.71V11.3101Z" fill="#676767"/>
<path d="M12 5.30997C13.1412 5.30997 14.07 6.23877 14.07 7.37997C14.07 8.52117 13.1412 9.44997 12 9.44997C10.8588 9.44997 9.92997 8.52117 9.92997 7.37997C9.92997 6.23877 10.8588 5.30997 12 5.30997ZM12 4.46997C10.3926 4.46997 9.08997 5.77257 9.08997 7.37997C9.08997 8.98737 10.3926 10.29 12 10.29C13.6074 10.29 14.91 8.98737 14.91 7.37997C14.91 5.77257 13.6074 4.46997 12 4.46997Z" fill="#676767"/>
<path d="M19.83 20.6699H3.87V21.5099H19.83V20.6699Z" fill="#676767"/>
<path d="M19.83 11.3101H3.87V12.1501H19.83V11.3101Z" fill="#676767"/>
<path d="M19.83 11.3101H18.99V19.6501H19.83V11.3101Z" fill="#676767"/>
</svg>
