<svg width="24" height="38" viewBox="0 0 24 38" fill="none" xmlns="http://www.w3.org/2000/svg">
<path d="M6 35H6.84V30.95C6.84 30.31 6.77 29.43 6.72 28.78H6.76L7.34 30.45L8.73 34.27H9.35L10.74 30.45L11.32 28.78H11.37C11.32 29.43 11.25 30.31 11.25 30.95V35H12.11V27.67H10.99L9.6 31.6C9.43 32.1 9.27 32.61 9.09 33.13H9.05C8.87 32.61 8.7 32.1 8.52 31.6L7.11 27.67H6V35ZM15.3052 35H16.2252V32.16L18.4252 27.67H17.4752L16.5252 29.75C16.2952 30.29 16.0452 30.8 15.7852 31.35H15.7452C15.4952 30.8 15.2752 30.29 15.0252 29.75L14.0852 27.67H13.0952L15.3052 32.16V35Z" fill="#676767"/>
<path d="M4.71012 11.3096H3.87012V19.6496H4.71012V11.3096Z" fill="#676767"/>
<path d="M12.0001 5.30973C13.1413 5.30973 14.0701 6.23853 14.0701 7.37973C14.0701 8.52093 13.1413 9.44973 12.0001 9.44973C10.8589 9.44973 9.93009 8.52093 9.93009 7.37973C9.93009 6.23853 10.8589 5.30973 12.0001 5.30973ZM12.0001 4.46973C10.3927 4.46973 9.09009 5.77233 9.09009 7.37973C9.09009 8.98713 10.3927 10.2897 12.0001 10.2897C13.6075 10.2897 14.9101 8.98713 14.9101 7.37973C14.9101 5.77233 13.6075 4.46973 12.0001 4.46973Z" fill="#676767"/>
<path d="M19.8301 20.6699H3.87012V21.5099H19.8301V20.6699Z" fill="#676767"/>
<path d="M19.8301 11.3096H3.87012V12.1496H19.8301V11.3096Z" fill="#676767"/>
<path d="M19.8302 11.3096H18.9902V19.6496H19.8302V11.3096Z" fill="#676767"/>
</svg>
