<svg width="36" height="50" viewBox="0 0 36 50" fill="none" xmlns="http://www.w3.org/2000/svg">
<g clip-path="url(#clip0_553_1248)">
<path d="M6.75 29.209H29.25V30.4946H6.75V29.209Z" fill="#676767"/>
<path d="M29.25 27.9618H27.9109V17.7985H8.08908V27.9618H6.75V16.5129H29.25V27.9618Z" fill="#676767"/>
<path d="M18.0201 13.2246C15.8017 13.2246 13.9971 11.4921 13.9971 9.36228C13.9971 7.23251 15.8017 5.5 18.0201 5.5C20.2385 5.5 22.0431 7.23251 22.0431 9.36228C22.0431 11.4921 20.2385 13.2246 18.0201 13.2246ZM18.0201 6.78559C16.5374 6.78559 15.3362 7.93876 15.3362 9.36228C15.3362 10.7858 16.5374 11.939 18.0201 11.939C19.5029 11.939 20.704 10.7858 20.704 9.36228C20.704 7.93876 19.5029 6.78559 18.0201 6.78559Z" fill="#676767"/>
</g>
<path d="M12 47H12.84V42.95C12.84 42.31 12.77 41.43 12.72 40.78H12.76L13.34 42.45L14.73 46.27H15.35L16.74 42.45L17.32 40.78H17.37C17.32 41.43 17.25 42.31 17.25 42.95V47H18.11V39.67H16.99L15.6 43.6C15.43 44.1 15.27 44.61 15.09 45.13H15.05C14.87 44.61 14.7 44.1 14.52 43.6L13.11 39.67H12V47ZM21.3052 47H22.2252V44.16L24.4252 39.67H23.4752L22.5252 41.75C22.2952 42.29 22.0452 42.8 21.7852 43.35H21.7452C21.4952 42.8 21.2752 42.29 21.0252 41.75L20.0852 39.67H19.0952L21.3052 44.16V47Z" fill="#676767"/>
<defs>
<clipPath id="clip0_553_1248">
<rect width="22.5" height="25" fill="white" transform="translate(6.75 5.5)"/>
</clipPath>
</defs>
</svg>
