<svg width="34" height="38" viewBox="0 0 34 38" fill="none" xmlns="http://www.w3.org/2000/svg">
<path d="M6.71 35.14C8.55 35.14 9.83 33.66 9.83 31.31C9.83 28.97 8.55 27.54 6.71 27.54C4.86 27.54 3.58 28.96 3.58 31.31C3.58 33.66 4.86 35.14 6.71 35.14ZM6.71 34.32C5.39 34.32 4.53 33.14 4.53 31.31C4.53 29.48 5.39 28.35 6.71 28.35C8.02 28.35 8.89 29.48 8.89 31.31C8.89 33.14 8.02 34.32 6.71 34.32ZM11.4219 35H12.3019V31.16C12.3019 30.38 12.2319 29.61 12.1819 28.87H12.2319L13.0219 30.38L15.6819 35H16.6419V27.67H15.7519V31.48C15.7519 32.24 15.8219 33.07 15.8819 33.81H15.8319L15.0419 32.29L12.3719 27.67H11.4219V35ZM21.2484 35.14C22.7484 35.14 23.8884 34.33 23.8884 31.98V27.67H22.9984V32.01C22.9984 33.77 22.2184 34.32 21.2484 34.32C20.2884 34.32 19.5384 33.77 19.5384 32.01V27.67H18.6184V31.98C18.6184 34.33 19.7584 35.14 21.2484 35.14ZM25.8555 35H29.9855V34.22H26.7855V27.67H25.8555V35Z" fill="#676767"/>
<path d="M18.455 5.1001H13.835H12.995V5.9401V6.9601H13.835V5.9401H18.455V6.9601H19.295V5.1001H18.455Z" fill="#676767"/>
<path d="M24.62 20.76H7.45996V21.6H24.62V20.76Z" fill="#676767"/>
<path d="M22.6401 10.98H20.1801V11.82H22.6401V10.98Z" fill="#676767"/>
<path d="M24.56 7.97998H7.45996V8.81998H24.56V7.97998Z" fill="#676767"/>
<path d="M24.5299 9.75488H23.6899V19.6849H24.5299V9.75488Z" fill="#676767"/>
<path d="M8.32999 9.75488H7.48999V19.6849H8.32999V9.75488Z" fill="#676767"/>
<path d="M25.7917 2.34717H24.9631L24.6961 3.29877H23.7847L24.0517 2.34717H23.2231L22.9561 3.29877H21.7753L21.5515 4.09677H22.7329L22.4773 5.00877H21.2959L21.0721 5.80677H22.2535L22.0441 6.55317H22.8727L23.0821 5.80677H23.9935L23.7841 6.55317H24.6127L24.8221 5.80677H25.9351L26.1565 5.00877H25.0459L25.3015 4.09677H26.4091L26.6305 3.29877H25.5259L25.7929 2.34717H25.7917ZM24.2167 5.00877H23.3053L23.5609 4.09677H24.4723L24.2167 5.00877Z" fill="#676767"/>
<path d="M16.145 12.5898C17.3192 12.5898 18.275 13.5456 18.275 14.7198C18.275 15.894 17.3192 16.8498 16.145 16.8498C14.9708 16.8498 14.015 15.894 14.015 14.7198C14.015 13.5456 14.9708 12.5898 16.145 12.5898ZM16.145 11.7498C14.5046 11.7498 13.175 13.0794 13.175 14.7198C13.175 16.3602 14.5046 17.6898 16.145 17.6898C17.7854 17.6898 19.115 16.3602 19.115 14.7198C19.115 13.0794 17.7854 11.7498 16.145 11.7498Z" fill="#676767"/>
</svg>
