<svg width="36" height="36" viewBox="0 0 36 36" fill="none" xmlns="http://www.w3.org/2000/svg">
<g clip-path="url(#clip0_53_159)">
<path d="M22.1193 12.1249H20.7792V9.42869H12.7113V12.1249H11.3712V8.08057H22.1193V12.1249Z" fill="#9C9C9C"/>
<path d="M4 13.4729H29.4631V14.821H4V13.4729Z" fill="#9C9C9C"/>
<path d="M4 29.6519H29.4631V31H4V29.6519Z" fill="#9C9C9C"/>
<path d="M28.123 16.1699H29.4631V28.3038H28.123V16.1699Z" fill="#9C9C9C"/>
<path d="M4 16.1699H5.34009V28.3038H4V16.1699Z" fill="#9C9C9C"/>
<path d="M22.0927 16.8433H26.1129V18.1914H22.0927V16.8433Z" fill="#9C9C9C"/>
<path d="M16.7453 26.2816C14.5271 26.2816 12.725 24.4681 12.725 22.2373C12.725 20.0064 14.5277 18.1929 16.7453 18.1929C18.9628 18.1929 20.7655 20.0064 20.7655 22.2373C20.7655 24.4681 18.9628 26.2816 16.7453 26.2816ZM16.7453 19.5403C15.2642 19.5403 14.0651 20.7466 14.0651 22.2366C14.0651 23.7265 15.2642 24.9328 16.7453 24.9328C18.2263 24.9328 19.4254 23.7265 19.4254 22.2366C19.4254 20.7466 18.2263 19.5403 16.7453 19.5403Z" fill="#9C9C9C"/>
<path d="M34.5928 5H33.2007L32.7524 6.60839H31.2214L31.6697 5H30.2775L29.8293 6.60839H27.8458L27.4701 7.95652H29.4535L29.0237 9.49743H27.0396L26.6638 10.8456H28.6479L28.2962 12.1069H29.6883L30.0401 10.8456H31.5711L31.2193 12.1069H32.6114L32.9632 10.8456H34.8324L35.204 9.49743H33.339L33.7688 7.95652H35.629L36.0007 6.60839H34.1452L34.5935 5L34.5928 5ZM31.9475 9.49743H30.4165L30.8463 7.95652H32.3773L31.9475 9.49743Z" fill="#9C9C9C"/>
</g>
<defs>
<clipPath id="clip0_53_159">
<rect width="32" height="26" fill="white" transform="translate(4 5)"/>
</clipPath>
</defs>
</svg>
