<svg width="36" height="36" viewBox="0 0 36 36" fill="none" xmlns="http://www.w3.org/2000/svg">
<g clip-path="url(#clip0_201_1400)">
<path fill-rule="evenodd" clip-rule="evenodd" d="M36 6.60434L35.6304 7.95392V7.9608H33.7686L33.3373 9.50318H35.1991L34.8295 10.8528H32.9609L32.6118 12.1128H31.2291L31.5782 10.8528H30.0449L29.6958 12.1128H28.3063L28.6554 10.8528H26.6704L27.0468 9.50318H29.0319L29.4631 7.9608H27.4781L27.8545 6.61123H29.8396L30.2845 5H31.674L31.2291 6.61123H32.7624L33.2073 5H34.5968L34.145 6.60434H36ZM30.4214 9.49629H31.9478L32.3859 7.95392H30.8526L30.4214 9.49629ZM20.7769 12.1268H22.1185V8.07808H11.372V12.1268H12.7136V9.42766H20.7769V12.1268ZM29.4631 13.4762H4V14.8258H29.4631V13.4762ZM4 29.6506H29.4631V31.0002H4V29.6506ZM29.4631 16.1682H28.1283H28.1215V28.3006H29.4631V16.1682ZM4 16.1682H5.3416V28.3006H4V16.1682ZM26.116 16.8431H22.098V18.1927H26.116V16.8431ZM16.7452 26.2831C14.5275 26.2831 12.7273 24.4722 12.7273 22.2413C12.7273 20.0103 14.5275 18.1994 16.7452 18.1994C18.963 18.1994 20.7632 20.0103 20.7632 22.2413C20.7632 24.4722 18.963 26.2831 16.7452 26.2831ZM16.7452 19.5421C15.2667 19.5421 14.062 20.7471 14.062 22.2413C14.062 23.7354 15.2599 24.9404 16.7452 24.9404C18.2306 24.9404 19.4285 23.7354 19.4285 22.2413C19.4285 20.7471 18.2306 19.5421 16.7452 19.5421Z" fill="#D86145"/>
</g>
<defs>
<clipPath id="clip0_201_1400">
<rect width="32" height="26" fill="white" transform="translate(4 5)"/>
</clipPath>
</defs>
</svg>
