<svg width="34" height="38" viewBox="0 0 34 38" fill="none" xmlns="http://www.w3.org/2000/svg">
<path d="M6.77 35.14C8.66 35.14 9.97 33.67 9.97 31.29C9.97 28.92 8.66 27.51 6.77 27.51C4.87 27.51 3.56 28.92 3.56 31.29C3.56 33.67 4.87 35.14 6.77 35.14ZM6.77 34.12C5.54 34.12 4.76 33.01 4.76 31.29C4.76 29.57 5.54 28.52 6.77 28.52C7.99 28.52 8.78 29.57 8.78 31.29C8.78 33.01 7.99 34.12 6.77 34.12ZM11.4991 35H12.6091V31.54C12.6091 30.73 12.5091 29.89 12.4591 29.12H12.5091L13.2791 30.67L15.7091 35H16.9091V27.64H15.7991V31.08C15.7991 31.87 15.8891 32.77 15.9591 33.52H15.9091L15.1391 31.97L12.6891 27.64H11.4991V35ZM21.5528 35.14C23.1828 35.14 24.2828 34.24 24.2828 31.85V27.64H23.1628V31.92C23.1628 33.58 22.4728 34.12 21.5528 34.12C20.6328 34.12 19.9728 33.58 19.9728 31.92V27.64H18.8128V31.85C18.8128 34.24 19.9128 35.14 21.5528 35.14ZM26.1768 35H30.4668V34.02H27.3468V27.64H26.1768V35Z" fill="#D86145"/>
<path d="M18.3951 5.09998H13.7751H12.9351V5.93998V6.95998H13.7751V5.93998H18.3951V6.95998H19.2351V5.09998H18.3951Z" fill="#D86145"/>
<path d="M24.5599 20.76H7.3999V21.6H24.5599V20.76Z" fill="#D86145"/>
<path d="M16.0851 16.8072C17.2614 16.8072 18.2151 15.8536 18.2151 14.6772C18.2151 13.5009 17.2614 12.5472 16.0851 12.5472C14.9087 12.5472 13.9551 13.5009 13.9551 14.6772C13.9551 15.8536 14.9087 16.8072 16.0851 16.8072Z" fill="#D86145"/>
<path d="M7.43018 9.71283V19.6428H24.4402V9.71283H7.43018ZM16.0852 17.6478C14.4448 17.6478 13.1152 16.3182 13.1152 14.6778C13.1152 13.0374 14.4448 11.7078 16.0852 11.7078C17.7256 11.7078 19.0552 13.0374 19.0552 14.6778C19.0552 16.3182 17.7256 17.6478 16.0852 17.6478ZM22.5802 11.8206H20.1202V10.9806H22.5802V11.8206Z" fill="#D86145"/>
<path d="M24.4999 7.97998H7.3999V8.81998H24.4999V7.97998Z" fill="#D86145"/>
<path d="M25.7318 2.34723H24.9032L24.6362 3.29883H23.7248L23.9918 2.34723H23.1632L22.8962 3.29883H21.7154L21.4916 4.09683H22.673L22.4174 5.00883H21.236L21.0122 5.80683H22.1936L21.9842 6.55323H22.8128L23.0222 5.80683H23.9336L23.7242 6.55323H24.5528L24.7622 5.80683H25.8752L26.0966 5.00883H24.986L25.2416 4.09683H26.3492L26.5706 3.29883H25.466L25.733 2.34723H25.7318ZM24.1568 5.00883H23.2454L23.501 4.09683H24.4124L24.1568 5.00883Z" fill="#D86145"/>
</svg>
