<svg width="27" height="27" viewBox="0 0 27 27" fill="none" xmlns="http://www.w3.org/2000/svg">
<g clip-path="url(#clip0_200_51)">
<path d="M21.3202 20.0712L20.0504 21.3372L25.7298 26.9995L26.9996 25.7335L21.3202 20.0712Z" fill="#D86145"/>
<path d="M11.4275 22.7862C5.12607 22.7862 0 17.6756 0 11.3931C0 5.11062 5.12607 0 11.4275 0C17.729 0 22.8551 5.11062 22.8551 11.3931C22.8551 17.6756 17.729 22.7862 11.4275 22.7862ZM11.4275 1.79034C6.11618 1.79034 1.79576 6.09775 1.79576 11.3931C1.79576 16.6884 6.11618 20.9958 11.4275 20.9958C16.7389 20.9958 21.0593 16.6884 21.0593 11.3931C21.0593 6.09775 16.7389 1.79034 11.4275 1.79034Z" fill="#D86145"/>
</g>
<defs>
<clipPath id="clip0_200_51">
<rect width="27" height="27" fill="white"/>
</clipPath>
</defs>
</svg>
