<svg width="26" height="26" viewBox="0 0 26 26" fill="none" xmlns="http://www.w3.org/2000/svg">
<path d="M10.2659 12.3073H15.9165V13.6926H10.2659V12.3073Z" fill="#D86145"/>
<path d="M25.8541 11.0533L25.7228 10.1929L24.8917 9.93775C24.3521 9.77005 23.9074 9.41279 23.623 8.93158C23.2366 8.26809 23.222 7.46607 23.5866 6.78071L23.9949 6.00785L23.4772 5.30791C23.0908 4.78295 22.6533 4.27987 22.1867 3.81324C21.7055 3.33203 21.1878 2.88727 20.6337 2.48626L19.9264 1.96859L19.1536 2.39148C18.8255 2.57375 18.4536 2.66854 18.0891 2.66854C17.7027 2.66854 17.3235 2.56646 16.9881 2.3696C16.4996 2.09254 16.1424 1.6405 15.982 1.10096L15.7268 0.262482L14.8591 0.138533C14.2758 0.0583313 13.6853 0.0145848 13.0947 0.0072937C13.0801 0.0072937 13.0655 0.0072937 13.0509 0.0072937C13.0364 0.0072937 13.0218 0.0072937 13.0072 0.0072937C12.4166 0.0145848 11.826 0.0510402 11.2428 0.138533L10.3751 0.262482L10.1054 1.09366C9.93766 1.63321 9.58039 2.07796 9.09918 2.36231C8.76379 2.55917 8.37736 2.66125 7.99823 2.66125C7.62638 2.66125 7.26183 2.56646 6.93373 2.38419L6.16087 1.9613L5.44635 2.47897C4.89952 2.87998 4.37456 3.32474 3.90064 3.80595C3.43401 4.27258 3.00384 4.77566 2.61012 5.30062L2.09245 6.00056L2.50075 6.77342C2.8653 7.45149 2.85072 8.2608 2.4643 8.92429C2.18723 9.41279 1.73519 9.77005 1.19565 9.93046L0.364463 10.1856L0.233224 11.046C0.13844 11.6876 0.0874023 12.3438 0.0874023 12.9927C0.0874023 13.6927 0.145731 14.3999 0.255097 15.0853L0.393628 15.931L1.21023 16.1862C1.74248 16.3539 2.18723 16.7112 2.4643 17.1924C2.83614 17.8413 2.85801 18.6287 2.52262 19.2995L2.1362 20.0651L2.64657 20.7504C3.02571 21.2535 3.4413 21.742 3.89335 22.1868C4.39643 22.6898 4.95055 23.1565 5.53384 23.5794L6.2192 24.0752L6.97018 23.6887C7.2837 23.5283 7.63367 23.4408 7.98364 23.4408H7.99094C8.37736 23.4408 8.7565 23.5429 9.09189 23.7398C9.55852 24.0095 9.90849 24.4324 10.0762 24.9428L10.3532 25.7448L11.1917 25.8688C11.7823 25.9563 12.3875 26 12.9926 26.0073C13.0072 26.0073 13.0218 26.0073 13.0364 26.0073C13.0509 26.0073 13.0655 26.0073 13.0801 26.0073C13.678 26 14.2831 25.9563 14.881 25.8688L15.7195 25.7448L15.9965 24.9428C16.1715 24.4324 16.5215 24.0095 16.9808 23.7398C17.3162 23.5429 17.7027 23.4408 18.0818 23.4408H18.0891C18.4391 23.4408 18.789 23.5283 19.1025 23.6887L19.8535 24.0752L20.5389 23.5794C21.1222 23.1638 21.669 22.6971 22.1794 22.1868C22.6241 21.742 23.047 21.2535 23.4262 20.7504L23.9365 20.0651L23.5501 19.2995C23.2147 18.6287 23.2366 17.8413 23.6084 17.1924C23.8855 16.7112 24.3303 16.3539 24.8625 16.1862L25.6791 15.931L25.8176 15.0853C25.927 14.3926 25.9853 13.6927 25.9853 12.9927C25.9999 12.3511 25.9489 11.6949 25.8541 11.0533ZM24.4615 14.8738C23.6303 15.1363 22.8939 15.6904 22.42 16.507C21.793 17.5934 21.8002 18.8766 22.3252 19.9265C21.9898 20.3786 21.618 20.8088 21.2097 21.2171C20.7503 21.6764 20.2618 22.092 19.7442 22.4638C19.2338 22.2013 18.6651 22.0628 18.0891 22.0628C17.4766 22.0628 16.8569 22.2159 16.2955 22.544C15.508 22.9961 14.9612 23.7033 14.6914 24.498C14.1519 24.5782 13.5978 24.6147 13.0437 24.622C12.4895 24.622 11.9354 24.5782 11.3959 24.498C11.1261 23.7033 10.572 22.9961 9.79183 22.544C9.22313 22.2159 8.60339 22.0628 7.99823 22.0628C7.42223 22.0628 6.85353 22.2013 6.34315 22.4638C5.82548 22.092 5.33698 21.6764 4.87764 21.2171C4.46934 20.8088 4.0975 20.3786 3.76211 19.9265C4.28707 18.8766 4.29436 17.6007 3.66732 16.507C3.20069 15.6904 2.457 15.1363 1.62582 14.8738C1.52375 14.2614 1.47271 13.6343 1.47271 13C1.47271 12.4094 1.51645 11.8261 1.60395 11.2574C2.44242 11.0022 3.1934 10.4408 3.66732 9.61694C4.30894 8.5014 4.28707 7.18172 3.72565 6.12451C4.07562 5.65788 4.45476 5.20584 4.87764 4.78295C5.31511 4.34549 5.77445 3.95177 6.26295 3.59451C6.7952 3.88615 7.39307 4.03926 7.99823 4.03926C8.61068 4.03926 9.23042 3.88615 9.79183 3.55805C10.6084 3.08413 11.1771 2.34044 11.4323 1.50197C11.9646 1.42905 12.4968 1.38531 13.0437 1.38531C13.5905 1.38531 14.1227 1.42905 14.655 1.50197C14.9102 2.34044 15.4789 3.08413 16.2955 3.55805C16.8642 3.88615 17.4839 4.03926 18.0891 4.03926C18.6942 4.03926 19.2921 3.88615 19.8244 3.59451C20.3129 3.95177 20.7722 4.34549 21.2097 4.78295C21.6325 5.20584 22.0117 5.65059 22.3617 6.12451C21.8002 7.18172 21.7784 8.5014 22.42 9.61694C22.8939 10.4335 23.6449 11.0022 24.4834 11.2574C24.5709 11.8261 24.6146 12.4094 24.6146 13C24.6146 13.6343 24.5636 14.2614 24.4615 14.8738Z" fill="#D86145"/>
</svg>
