<svg width="36" height="36" viewBox="0 0 36 36" fill="none" xmlns="http://www.w3.org/2000/svg">
<g clip-path="url(#clip0_201_3727)">
<path d="M18 9C12.0214 9 6.65893 12.4837 3 18C6.65893 23.5163 12.0214 27 18 27C23.9786 27 29.3411 23.5163 33 18C29.3411 12.4837 23.9786 9 18 9ZM18 23.6211C14.8286 23.6211 12.2518 21.096 12.2518 17.9948C12.2518 14.8935 14.8286 12.3737 18 12.3737C21.1714 12.3737 23.7482 14.8987 23.7482 17.9948C23.7482 21.1013 21.1714 23.6211 18 23.6211Z" fill="#D86145"/>
<path d="M17.9998 14.6265C16.098 14.6265 14.5498 16.1404 14.5498 18.0002C14.5498 19.8599 16.098 21.3738 17.9998 21.3738C19.9016 21.3738 21.4498 19.8599 21.4498 18.0002C21.4498 16.1404 19.9016 14.6265 17.9998 14.6265Z" fill="#D86145"/>
</g>
<defs>
<clipPath id="clip0_201_3727">
<rect width="30" height="18" fill="white" transform="translate(3 9)"/>
</clipPath>
</defs>
</svg>
