<svg width="162" height="162" viewBox="0 0 162 162" fill="none" xmlns="http://www.w3.org/2000/svg">
<path d="M159.44 64.5401H111.63V6.37014C135.85 16.5401 154.09 38.2301 159.44 64.5401ZM80.5804 0.140137C88.2704 0.140137 95.7204 1.23014 102.77 3.25014V64.5401H1.73035C9.19035 27.8401 41.7104 0.140137 80.5804 0.140137ZM0.110352 80.6101C0.110352 78.1801 0.220351 75.7801 0.440351 73.4001H96.5104L28.2404 141.67C11.0304 126.9 0.110352 105.01 0.110352 80.6101ZM35.3304 147.11L102.77 79.6701V150.56L92.8803 140.68L86.6204 146.94L98.7104 159.03C92.8804 160.38 86.8104 161.09 80.5804 161.09C63.8104 161.07 48.2304 155.92 35.3304 147.11ZM111.63 154.84V73.4001H160.73C160.94 75.7801 161.06 78.1801 161.06 80.6101C161.05 113.98 140.63 142.67 111.63 154.84Z" fill="#D86145"/>
</svg>
